<?xml version="1.0" encoding="iso-8859-1"?>
<!-- Generator: Adobe Illustrator 18.1.1, SVG Export Plug-In . SVG Version: 6.00 Build 0)  -->
<svg version="1.1" id="Capa_1" xmlns="http://www.w3.org/2000/svg" xmlns:xlink="http://www.w3.org/1999/xlink" x="0px" y="0px"
	 viewBox="0 0 174.239 174.239" style="enable-background:new 0 0 174.239 174.239;" xml:space="preserve">
<g>
	<g>
		<path d="M169.261,16.012c2.738,0,4.978,2.24,4.978,4.978v0.63c0,2.738-1.852,6.238-4.116,7.778L91.192,88.063
			c-2.264,1.54-5.969,1.54-8.233,0.001L4.117,29.486C1.853,27.946,0,24.447,0,21.709v-0.718c0-2.738,2.24-4.978,4.978-4.978H169.261
			z"/>
	</g>
	<g>
		<path d="M83.059,104.557c2.209,1.618,5.824,1.619,8.034,0.002l79.129-57.905c2.21-1.617,4.017-0.7,4.017,2.038v104.557
			c0,2.738-2.24,4.978-4.978,4.978H4.978c-2.738,0-4.978-2.24-4.978-4.978V48.692c0-2.738,1.807-3.654,4.016-2.036L83.059,104.557z"
			/>
	</g>
</g>
<g>
</g>
<g>
</g>
<g>
</g>
<g>
</g>
<g>
</g>
<g>
</g>
<g>
</g>
<g>
</g>
<g>
</g>
<g>
</g>
<g>
</g>
<g>
</g>
<g>
</g>
<g>
</g>
<g>
</g>
</svg>
