<svg width="82" height="100" viewBox="0 0 82 100" fill="none" xmlns="http://www.w3.org/2000/svg">
<path d="M78.5 0H9.75C8.13203 0 6.82031 1.31172 6.82031 2.92969V15.8203H3.5C1.88203 15.8203 0.570312 17.132 0.570312 18.75C0.570312 20.368 1.88203 21.6797 3.5 21.6797H6.82031V31.4453H3.5C1.88203 31.4453 0.570312 32.757 0.570312 34.375C0.570312 35.993 1.88203 37.3047 3.5 37.3047H6.82031V47.0703H3.5C1.88203 47.0703 0.570312 48.382 0.570312 50C0.570312 51.618 1.88203 52.9297 3.5 52.9297H6.82031V62.6953H3.5C1.88203 62.6953 0.570312 64.007 0.570312 65.625C0.570312 67.243 1.88203 68.5547 3.5 68.5547H6.82031V78.3203H3.5C1.88203 78.3203 0.570312 79.632 0.570312 81.25C0.570312 82.868 1.88203 84.1797 3.5 84.1797H6.82031V97.0703C6.82031 98.6883 8.13203 100 9.75 100H78.5C80.118 100 81.4297 98.6883 81.4297 97.0703V2.92969C81.4297 1.31172 80.118 0 78.5 0ZM75.5703 94.1406H12.6797V84.1797H16C17.618 84.1797 18.9297 82.868 18.9297 81.25C18.9297 79.632 17.618 78.3203 16 78.3203H12.6797V68.5547H16C17.618 68.5547 18.9297 67.243 18.9297 65.625C18.9297 64.007 17.618 62.6953 16 62.6953H12.6797V52.9297H16C17.618 52.9297 18.9297 51.618 18.9297 50C18.9297 48.382 17.618 47.0703 16 47.0703H12.6797V37.3047H16C17.618 37.3047 18.9297 35.993 18.9297 34.375C18.9297 32.757 17.618 31.4453 16 31.4453H12.6797V21.6797H16C17.618 21.6797 18.9297 20.368 18.9297 18.75C18.9297 17.132 17.618 15.8203 16 15.8203H12.6797V5.85938H75.5703V94.1406Z" fill="#F2F1EF"/>
<path d="M25.5703 70.3125C25.5703 71.9305 26.882 73.2422 28.5 73.2422C30.118 73.2422 31.4297 71.9305 31.4297 70.3125C31.4297 62.5359 36.1783 54.4922 44.125 54.4922C52.0717 54.4922 56.8203 62.5359 56.8203 70.3125C56.8203 71.9305 58.132 73.2422 59.75 73.2422C61.368 73.2422 62.6797 71.9305 62.6797 70.3125C62.6797 62.868 59.2816 55.1572 53.0586 51.2195C56.0728 48.6738 57.9922 44.8701 57.9922 40.625C57.9922 32.9787 51.7713 26.7578 44.125 26.7578C36.4787 26.7578 30.2578 32.9787 30.2578 40.625C30.2578 44.8701 32.1771 48.6738 35.1914 51.2195C28.9686 55.157 25.5703 62.8691 25.5703 70.3125ZM36.1172 40.625C36.1172 36.2096 39.7096 32.6172 44.125 32.6172C48.5404 32.6172 52.1328 36.2096 52.1328 40.625C52.1328 45.0404 48.5404 48.6328 44.125 48.6328C39.7096 48.6328 36.1172 45.0404 36.1172 40.625Z" fill="#F2F1EF"/>
</svg>
