<svg width="96" height="100" viewBox="0 0 96 100" fill="none" xmlns="http://www.w3.org/2000/svg">
<path d="M64.9924 2.92969H43.02V0H34.2311V2.92969H0.246338V14.6484H3.17602V5.85938H34.2311V86.8164H4.64087C4.12759 86.8164 3.63442 86.9049 3.17602 87.0674V17.5779H0.246338V92.6758C0.246338 95.099 2.21782 97.0703 4.64087 97.0703H34.2311V100H43.02V97.0703H64.9924C69.0311 97.0703 72.3166 93.7848 72.3166 89.7461V10.2539C72.3166 6.21523 69.0311 2.92969 64.9924 2.92969ZM37.1608 2.92969H40.0903V86.8164H37.1608V2.92969ZM4.64087 94.1406C3.83306 94.1406 3.17602 93.4836 3.17602 92.6758V91.2109C3.17602 90.4033 3.83306 89.7461 4.64087 89.7461H34.2311V94.1406H4.64087ZM37.1608 97.0703V89.7461H40.0903V97.0703H37.1608ZM69.387 89.7461C69.387 92.1693 67.4155 94.1406 64.9924 94.1406H43.02V89.7461H64.9924C66.6401 89.7461 68.1622 89.1994 69.387 88.2777V89.7461ZM69.387 82.4219C69.387 84.8451 67.4155 86.8164 64.9924 86.8164H43.02V5.85938H64.9924C67.4155 5.85938 69.387 7.83066 69.387 10.2539V82.4219Z" fill="#F2F1EF"/>
<path d="M95.7537 71.4357V7.32422C95.7537 4.90098 93.7822 2.92969 91.3592 2.92969H85.5C83.077 2.92969 81.1055 4.90098 81.1055 7.32422V85.0627L88.4295 96.049L95.7537 85.0629V74.3656H92.824V82.7434L89.8943 82.0109V29.2967H86.9646V82.0109L84.0352 82.7434V17.5781H86.9646V20.5078H89.8943V17.5781H92.824V71.4359H95.7537V71.4357ZM84.9422 85.5361L88.4295 84.6643L91.917 85.5361L88.4295 90.7674L84.9422 85.5361ZM84.0352 14.6484V7.32422C84.0352 6.51641 84.6922 5.85938 85.5 5.85938H91.3592C92.167 5.85938 92.824 6.51641 92.824 7.32422V14.6484H84.0352Z" fill="#F2F1EF"/>
<path d="M86.9647 23.4373H89.8944V26.3669H86.9647V23.4373Z" fill="#F2F1EF"/>
<path d="M63.5276 14.6484H66.4573V17.5781H63.5276V14.6484Z" fill="#F2F1EF"/>
<path d="M63.5276 8.78906H66.4573V11.7188H63.5276V8.78906Z" fill="#F2F1EF"/>
</svg>
