<svg width="100" height="90" viewBox="0 0 100 90" fill="none" xmlns="http://www.w3.org/2000/svg">
<path d="M98.7082 24.2966L95.0652 20.6537V5.93753C95.0652 2.70668 92.4367 0.0783691 89.2059 0.0783691H46.2373C43.0065 0.0783691 40.378 2.70668 40.378 5.93753V35.2343H10.7941C7.56325 35.2343 4.93475 37.8628 4.93475 41.0936V55.8094L1.29199 59.4523C0.458787 60.2852 0 61.3953 0 62.5779C0 63.7605 0.458787 64.8705 1.29179 65.7037L4.93475 69.3466V84.0624C4.93475 87.2933 7.56325 89.9216 10.7941 89.9216H53.7627C56.9935 89.9216 59.622 87.2933 59.622 84.0624V54.7656H89.2057C92.4365 54.7656 95.065 52.1371 95.065 48.9063V34.1905L98.708 30.5478C99.541 29.7146 99.9998 28.6048 99.9998 27.422C99.9998 26.2392 99.5412 25.1292 98.7082 24.2966ZM55.716 84.0624C55.716 85.1394 54.8398 86.0153 53.7629 86.0153H10.7943C9.71734 86.0153 8.84118 85.1394 8.84118 84.0624V68.5377C8.84118 68.0197 8.63532 67.523 8.26911 67.1566L4.05409 62.9416C3.92557 62.8133 3.90623 62.6588 3.90623 62.5779C3.90623 62.4975 3.92538 62.343 4.05389 62.2146L8.26891 57.9996C8.63512 57.6332 8.84098 57.1365 8.84098 56.6186V41.0936C8.84098 40.0167 9.71715 39.1405 10.7941 39.1405H40.3778V48.9063C40.3778 52.1371 43.0063 54.7656 46.2371 54.7656H55.7158V84.0624H55.716ZM95.9461 27.7857L91.7311 32.0005C91.3649 32.3667 91.159 32.8636 91.159 33.3816V48.9063C91.159 49.9832 90.2828 50.8594 89.2059 50.8594H46.2373C45.1604 50.8594 44.2842 49.9832 44.2842 48.9063V5.93753C44.2842 4.86058 45.1604 3.9846 46.2373 3.9846H89.2059C90.2828 3.9846 91.159 4.86058 91.159 5.93753V21.4623C91.159 21.9802 91.3647 22.4769 91.7311 22.8433L95.9463 27.0587C96.0746 27.1869 96.0938 27.3413 96.0938 27.4218C96.0936 27.5029 96.0744 27.6574 95.9461 27.7857Z" fill="#F2F1EF"/>
<path d="M81.3932 9.84387H54.05C52.9713 9.84387 52.0969 10.7185 52.0969 11.797C52.0969 12.8755 52.9713 13.7501 54.05 13.7501H81.3932C82.4719 13.7501 83.3464 12.8755 83.3464 11.797C83.3464 10.7185 82.4719 9.84387 81.3932 9.84387Z" fill="#F2F1EF"/>
<path d="M81.3932 17.6565H54.05C52.9713 17.6565 52.0969 18.5311 52.0969 19.6096C52.0969 20.6881 52.9713 21.5628 54.05 21.5628H81.3932C82.4719 21.5628 83.3464 20.6881 83.3464 19.6096C83.3464 18.5311 82.4719 17.6565 81.3932 17.6565Z" fill="#F2F1EF"/>
<path d="M81.3932 25.4689H54.05C52.9713 25.4689 52.0969 26.3435 52.0969 27.422C52.0969 28.5005 52.9713 29.3751 54.05 29.3751H81.3932C82.4719 29.3751 83.3464 28.5005 83.3464 27.422C83.3464 26.3435 82.4719 25.4689 81.3932 25.4689Z" fill="#F2F1EF"/>
<path d="M81.3931 33.2814H67.7214C66.6427 33.2814 65.7683 34.156 65.7683 35.2345C65.7683 36.313 66.6427 37.1876 67.7214 37.1876H81.3931C82.4718 37.1876 83.3462 36.313 83.3462 35.2345C83.3462 34.156 82.4718 33.2814 81.3931 33.2814Z" fill="#F2F1EF"/>
<path d="M81.3931 41.0939H67.7214C66.6427 41.0939 65.7683 41.9685 65.7683 43.047C65.7683 44.1255 66.6427 45.0001 67.7214 45.0001H81.3931C82.4718 45.0001 83.3462 44.1255 83.3462 43.047C83.3462 41.9685 82.4718 41.0939 81.3931 41.0939Z" fill="#F2F1EF"/>
<path d="M18.6071 48.9062H32.2787C33.3574 48.9062 34.2319 48.0316 34.2319 46.9531C34.2319 45.8746 33.3574 45 32.2787 45H18.6071C17.5283 45 16.6539 45.8746 16.6539 46.9531C16.6539 48.0316 17.5283 48.9062 18.6071 48.9062Z" fill="#F2F1EF"/>
<path d="M18.6069 56.7186H32.2786C33.3573 56.7186 34.2317 55.844 34.2317 54.7655C34.2317 53.687 33.3573 52.8124 32.2786 52.8124H18.6069C17.5282 52.8124 16.6538 53.687 16.6538 54.7655C16.6538 55.844 17.5282 56.7186 18.6069 56.7186Z" fill="#F2F1EF"/>
<path d="M18.6069 60.6248C17.5282 60.6248 16.6538 61.4994 16.6538 62.5779C16.6538 63.6564 17.5282 64.531 18.6069 64.531H45.9501C47.0288 64.531 47.9032 63.6564 47.9032 62.5779C47.9032 61.4994 47.0288 60.6248 45.9501 60.6248H18.6069Z" fill="#F2F1EF"/>
<path d="M45.9501 68.4373H18.6069C17.5282 68.4373 16.6538 69.3119 16.6538 70.3904C16.6538 71.4689 17.5282 72.3435 18.6069 72.3435H45.9501C47.0288 72.3435 47.9032 71.4689 47.9032 70.3904C47.9032 69.3119 47.0288 68.4373 45.9501 68.4373Z" fill="#F2F1EF"/>
<path d="M45.9501 76.2498H18.6069C17.5282 76.2498 16.6538 77.1244 16.6538 78.2029C16.6538 79.2814 17.5282 80.156 18.6069 80.156H45.9501C47.0288 80.156 47.9032 79.2814 47.9032 78.2029C47.9032 77.1244 47.0288 76.2498 45.9501 76.2498Z" fill="#F2F1EF"/>
</svg>
