<svg width="100" height="88" viewBox="0 0 100 88" fill="none" xmlns="http://www.w3.org/2000/svg">
<path d="M98.5352 84.8045H92.8917C94.1971 83.0215 94.735 80.7602 94.3192 78.5156C94.0941 77.3048 93.605 76.1917 92.9146 75.2335C94.1521 74.9481 95.3377 74.3874 96.3768 73.5558C96.965 73.085 97.3091 72.3824 97.3213 71.6293C97.3335 70.8755 97.0123 70.1622 96.4394 69.6724L82.8812 58.0811C81.8832 57.2273 81.1348 56.1188 80.7175 54.8737L77.5497 45.4147C77.549 45.4117 77.5475 45.4086 77.5467 45.4056L74.6941 36.8904C73.4009 33.0292 70.3094 29.9957 66.4246 28.7758L56.601 25.6905C59.2682 23.8098 61.0153 20.7069 61.0153 17.202V10.3836C61.0153 4.65775 56.3568 0 50.6317 0C44.9066 0 40.2481 4.65775 40.2481 10.3836V17.2028C40.2481 20.546 41.8381 23.5237 44.3001 25.4234C44.0453 25.4936 43.7912 25.5676 43.5379 25.647L33.5754 28.7758C29.6906 29.9957 26.5991 33.0292 25.3059 36.8904L19.2818 54.8737C18.8644 56.1188 18.1168 57.2281 17.1188 58.0811L3.56064 69.6732C2.98767 70.163 2.66647 70.8755 2.67868 71.6293C2.69089 72.3831 3.03497 73.085 3.6232 73.5558C4.70963 74.4255 5.95551 74.9992 7.25403 75.2708C6.02798 77.5269 5.79529 80.278 6.74057 82.7721C7.02744 83.5266 7.40509 84.2064 7.8598 84.8053H1.46484C0.655365 84.8053 0 85.4607 0 86.2701C0 87.0789 0.655365 87.735 1.46484 87.735H89.1388H89.1403H89.1418H98.5352C99.3446 87.735 100 87.0789 100 86.2701C100 85.4607 99.3439 84.8045 98.5352 84.8045ZM65.1985 50.6325L70.372 63.5056C70.401 63.5773 70.4353 63.6467 70.475 63.7131C71.3905 65.2374 72.6944 66.5001 74.247 67.366L75.9621 68.322L65.1985 65.0352V50.6325ZM80.9769 60.3081L94.1429 71.5637C92.3775 72.7432 90.1047 72.8477 88.224 71.8025L75.6737 64.8071C74.6002 64.209 73.6931 63.343 73.0446 62.3001L68.4334 50.8255L75.2724 47.8401L77.9396 55.8037C78.5255 57.5523 79.5761 59.1095 80.9769 60.3081ZM43.1778 17.2028V10.3836C43.1778 6.27365 46.5218 2.92969 50.6317 2.92969C54.7417 2.92969 58.0856 6.27365 58.0856 10.3836V17.2028C58.0856 21.3127 54.7417 24.6567 50.6317 24.6567C46.5218 24.6567 43.1778 21.3127 43.1778 17.2028ZM34.4528 31.5704L44.416 28.4424C48.069 27.2949 51.931 27.2949 55.584 28.4424L65.5472 31.5704C68.5394 32.5104 70.9206 34.8465 71.9162 37.8212L74.3385 45.0516L67.3401 48.1056L65.0925 42.5133C64.8308 41.8625 64.1449 41.4879 63.4552 41.6214C62.7663 41.7549 62.2688 42.3584 62.2688 43.0595V64.6545H37.7312V43.0595C37.7312 42.3584 37.2337 41.7549 36.5448 41.6214C35.8574 41.4879 35.1692 41.8625 34.9075 42.5133L32.962 47.3534L26.049 43.8965L28.0838 37.8212C29.0794 34.8465 31.4606 32.5104 34.4528 31.5704ZM19.0224 60.3081C20.4239 59.1095 21.4745 57.5523 22.0596 55.8037L25.1083 46.7018L31.8657 50.0809L30.8006 52.7306C30.4993 53.4813 30.8632 54.3343 31.6139 54.6364C32.3639 54.9377 33.2176 54.5738 33.519 53.8231L34.8015 50.6332V65.0307L24.2493 68.2045L25.7523 67.366C27.3048 66.5009 28.6095 65.2382 29.525 63.7138C29.5647 63.6475 29.599 63.578 29.628 63.5056L30.7228 60.7803C31.0249 60.0296 30.661 59.1766 29.9103 58.8753C29.1595 58.5732 28.3066 58.9371 28.0045 59.6878L26.9547 62.3001C26.3062 63.3438 25.3998 64.209 24.3263 64.8071L11.7775 71.8018C9.89532 72.8477 7.62329 72.7432 5.85709 71.5637L19.0224 60.3081ZM13.9999 84.8045H13.9946C11.866 84.8045 10.2211 83.6853 9.48029 81.7329C8.64258 79.5235 9.21631 76.9188 10.8696 75.2869L36.4815 67.5842H63.5155L87.8304 75.0092C89.7278 75.5882 91.0767 77.0988 91.4383 79.0497C91.7999 81.0005 91.0828 82.8941 89.5187 84.1148L88.636 84.8053H57.7019C57.5127 83.7784 57.0564 82.4127 55.9769 81.1974L58.8951 81.0364C59.7031 80.9921 60.3218 80.3009 60.2768 79.493C60.2325 78.6858 59.5413 78.0678 58.7341 78.1113L50.795 78.55C50.4593 78.4897 50.1091 78.4393 49.7414 78.4019L27.1484 76.0422C26.3382 75.9575 25.6233 76.5427 25.5394 77.3468C25.4555 78.1517 26.0399 78.8719 26.844 78.9558L49.4385 81.3156C49.7803 81.3507 50.1015 81.3988 50.4021 81.4568C50.4082 81.4583 50.415 81.459 50.4211 81.4606C53.3455 82.0343 54.3739 83.6258 54.7287 84.8045H13.9999Z" fill="#F2F1EF"/>
</svg>
