<?xml version="1.0" standalone="no"?><svg xmlns="http://www.w3.org/2000/svg" viewBox="0 0 1440 320"><path fill="#97BCC7" fill-opacity="1" d="M0,224L34.3,224C68.6,224,137,224,206,229.3C274.3,235,343,245,411,229.3C480,213,549,171,617,165.3C685.7,160,754,192,823,213.3C891.4,235,960,245,1029,213.3C1097.1,181,1166,107,1234,74.7C1302.9,43,1371,53,1406,58.7L1440,64L1440,0L1405.7,0C1371.4,0,1303,0,1234,0C1165.7,0,1097,0,1029,0C960,0,891,0,823,0C754.3,0,686,0,617,0C548.6,0,480,0,411,0C342.9,0,274,0,206,0C137.1,0,69,0,34,0L0,0Z"></path></svg>