<?xml version="1.0" standalone="no"?><svg xmlns="http://www.w3.org/2000/svg" viewBox="0 0 1440 320"><path fill="#053D57" fill-opacity="1" d="M0,288L40,293.3C80,299,160,309,240,261.3C320,213,400,107,480,96C560,85,640,171,720,208C800,245,880,235,960,213.3C1040,192,1120,160,1200,133.3C1280,107,1360,85,1400,74.7L1440,64L1440,320L1400,320C1360,320,1280,320,1200,320C1120,320,1040,320,960,320C880,320,800,320,720,320C640,320,560,320,480,320C400,320,320,320,240,320C160,320,80,320,40,320L0,320Z"></path></svg>